<svg version="1.2" xmlns="http://www.w3.org/2000/svg" viewBox="0 0 198 288" width="198" height="288">
	<title>L1_lo_off_rvb-svg</title>
	<style>
		.s0 { fill: #091c3e } 
		.s1 { fill: #ffffff } 
		.s2 { fill: #cdfb0a } 
	</style>
	<g id="Layer">
		<path id="Layer" class="s0" d="m2.1 2.1h193.2v283.5h-193.2zm-2.1-2.1h198v288h-198z"/>
		<g id="Layer">
			<g id="Layer">
				<g id="Layer">
					<path id="Layer" fill-rule="evenodd" class="s1" d="m102.7 226.6h15.4v3.8h-11.2v5.4h10.9v3.6h-10.9v5.4h11.2v3.8h-15.4zm49.7 16.9h4.1c0.5 1.8 1.8 2.3 4.2 2.3 1.8 0 3-0.7 3-1.7 0-0.7-0.4-1.1-1.9-1.4l-3.9-0.9c-3.5-0.8-5.2-2.3-5.2-4.7 0-3.4 3-5.2 7.3-5.2 4.9 0 7.4 2.2 7.6 5.6h-4.1c-0.4-1.8-1.9-2.3-3.8-2.3-1.8 0-2.8 0.6-2.8 1.6 0 0.7 0.7 1.1 2.7 1.5l3.5 0.7c3.3 0.7 4.9 2.4 4.9 4.6 0 3.1-2.7 5.4-7.4 5.4-5.1 0-7.6-2.3-8.2-5.5zm-1.2 5.1h-4.4c-2.8 0-4.3-1.7-4.3-3.9v-8.7h-3.1v-3.7h3.1v-4.6h4.1v4.6h4.6v3.7h-4.6v7.6c0 0.9 0.6 1.3 1.5 1.3h3.1zm-13.6-16.2v16.2h-4.1v-1.5c-1.5 1.2-3.3 1.9-5.2 1.9-0.2 0-0.3 0-0.4 0-4.7-0.1-8.4-4-8.3-8.7 0.1-4.7 4-8.4 8.7-8.3 1.9 0 3.8 0.7 5.2 1.9v-1.5zm-8.9 13c2.7 0 4.9-2.2 4.9-4.9 0-0.1 0-0.1 0-0.1 0-2.7-2.3-4.9-5-4.9-2.7 0-4.9 2.3-4.9 5 0 2.7 2.3 4.9 5 4.9z"/>
				</g>
			</g>
			<g id="Layer">
				<g id="Layer">
					<path id="Layer" fill-rule="evenodd" class="s1" d="m64.3 211.6h-5.3v-21.1h5.3zm-9.2-4.4v4.4h-15.3v-21.1h5.3v16.7zm70.1 0.1h10.4v4.4h-15.7v-21.1h15.4v4.4h-10.1v3.7h8.2v4.2h-8.2zm29.4-16.9h3.1v21.1h-5.1v-14.8l-4.7 2.5-1-4.5 7.7-4.2zm-45.7 0.1h5.3v11.8c0 6.2-4 9.5-10 9.5-6 0-10-3.2-10-9.5v-11.8h5.3v12.2c0 2.3 1.4 4.6 4.7 4.6 3.3 0 4.7-2.3 4.7-4.6zm-15.2 41.9h1.1v2.9h-1.3c-2 0-3.5 1.6-3.5 4.1v9.1h-3.1v-16h3.1v2c0.7-1.3 2.2-2.1 3.7-2.1zm-26.7 8.4c-0.1 4.6-3.9 8.3-8.5 8.2-2.1 0-4.2-0.9-5.7-2.4v2h-3.1v-22h3.1v8c1.5-1.5 3.6-2.4 5.7-2.4 0.2 0 0.3 0 0.4 0 4.6 0.1 8.3 4 8.1 8.6zm-3.1-0.3c-0.1-3-2.5-5.5-5.6-5.5-3 0.1-5.5 2.5-5.5 5.6 0 3.1 2.5 5.5 5.6 5.5-0.1 0 0 0 0 0 3 0 5.4-2.5 5.5-5.6zm20.8 1.1h-13c0.4 2.6 2.7 4.6 5.3 4.6 1.8 0.1 3.5-0.8 4.6-2.3l2.3 1.7c-1.6 2.2-4.2 3.5-6.9 3.4-4.8 0-8.5-3.6-8.5-8.4 0-4.6 3.7-8.3 8.2-8.3 4.6 0 8 3.5 8 8.3zm-3.2-2.5c-0.5-2.4-2.4-4.1-4.8-4.1-2.4 0-4.3 1.7-4.9 4.1zm-37.9-12.5h3.3v22h-3.2v-2.1c-1.5 1.5-3.6 2.4-5.8 2.4-4.7 0-8.3-3.4-8.3-8.6v-13.7h3.3v13.6c0 3.5 2.2 5.8 5.3 5.8 3 0 5.4-2.3 5.4-5.8zm25.4-25.6c0-6 4.8-10.8 12-10.8 3.5 0 6.3 0.7 7.8 1.5l-1.3 4.6c-1.8-0.8-3.5-1.3-6.3-1.3-4 0-6.7 2.4-6.7 6.1 0 3.7 3 6.3 6.7 6.3 1.3 0 2.4-0.3 3.3-0.7v-5.4l4.9-0.6v8.6c-1.1 0.9-3.8 2.6-8.5 2.6-7 0-11.9-4.8-11.9-10.9z"/>
				</g>
			</g>
			<g id="Layer">
				<g id="Layer">
					<path id="Layer" class="s2" d="m167.3 107.3c-10.1 21.3-21.4 39.8-36.1 57.8-20.5 3.2-40.4 2.7-62.4 0.6l14.4-23c11.5 0.6 23 0.7 34.5-0.3 8.3-11 15.3-22.9 21.6-35.2-4.8-9.6-10.2-18.4-16.7-27.7l14.3-22.9c11.8 15.6 22.6 32.3 30.4 50.7z"/>
					<path id="Layer" class="s2" d="m74.9 126.4l-14.3 22.9c-12.4-16.4-22.4-32.3-30.4-50.6 9.1-20.1 22.1-41.1 36.1-57.9 21.9-2.5 41.7-2.8 62.4-0.6l-14.4 23c-11.5-0.6-23-0.7-34.5 0.3-8.4 10.9-15.3 22.9-21.6 35.2 4.8 9.5 10.2 18.1 16.7 27.7z"/>
				</g>
				<circle id="Layer" class="s1" cx="98.7" cy="102.9" r="18.6"/>
			</g>
		</g>
	</g>
</svg>